<svg xmlns="http://www.w3.org/2000/svg" viewBox="0 0 720 420" width="720" height="420" role="img" aria-label="GitHub activity statistics">
<rect width="720" height="420" fill="#0d1117"/>
<style>text{font-family:ui-monospace,Consolas,monospace;fill:#e6edf3;font-size:14px}.label{fill:#9aa5b1;font-size:12px}.number{font-size:32px;font-weight:600}</style>
<text x="24" y="22" class="label" >Updated 2026-10-06 · UTC · last 365 days</text>
<text x="24" y="64" class="label" >contributions, last year</text>
<text x="24" y="104" class="number" >136</text>
<rect x="288.00" y="113.00" width="5.55" height="1.00" fill="#8aa3b5"/>
<rect x="295.55" y="113.00" width="5.55" height="1.00" fill="#8aa3b5"/>
<rect x="303.09" y="113.00" width="5.55" height="1.00" fill="#8aa3b5"/>
<rect x="310.64" y="113.00" width="5.55" height="1.00" fill="#8aa3b5"/>
<rect x="318.19" y="113.00" width="5.55" height="1.00" fill="#8aa3b5"/>
<rect x="325.74" y="113.00" width="5.55" height="1.00" fill="#8aa3b5"/>
<rect x="333.28" y="113.00" width="5.55" height="1.00" fill="#8aa3b5"/>
<rect x="340.83" y="113.00" width="5.55" height="1.00" fill="#8aa3b5"/>
<rect x="348.38" y="113.00" width="5.55" height="1.00" fill="#8aa3b5"/>
<rect x="355.92" y="113.00" width="5.55" height="1.00" fill="#8aa3b5"/>
<rect x="363.47" y="113.00" width="5.55" height="1.00" fill="#8aa3b5"/>
<rect x="371.02" y="113.00" width="5.55" height="1.00" fill="#8aa3b5"/>
<rect x="378.57" y="113.00" width="5.55" height="1.00" fill="#8aa3b5"/>
<rect x="386.11" y="113.00" width="5.55" height="1.00" fill="#8aa3b5"/>
<rect x="393.66" y="113.00" width="5.55" height="1.00" fill="#8aa3b5"/>
<rect x="401.21" y="113.00" width="5.55" height="1.00" fill="#8aa3b5"/>
<rect x="408.75" y="113.00" width="5.55" height="1.00" fill="#8aa3b5"/>
<rect x="416.30" y="113.00" width="5.55" height="1.00" fill="#8aa3b5"/>
<rect x="423.85" y="113.00" width="5.55" height="1.00" fill="#8aa3b5"/>
<rect x="431.40" y="113.00" width="5.55" height="1.00" fill="#8aa3b5"/>
<rect x="438.94" y="113.00" width="5.55" height="1.00" fill="#8aa3b5"/>
<rect x="446.49" y="113.00" width="5.55" height="1.00" fill="#8aa3b5"/>
<rect x="454.04" y="113.00" width="5.55" height="1.00" fill="#8aa3b5"/>
<rect x="461.58" y="104.44" width="5.55" height="9.56" fill="#8aa3b5"/>
<rect x="469.13" y="113.00" width="5.55" height="1.00" fill="#8aa3b5"/>
<rect x="476.68" y="113.00" width="5.55" height="1.00" fill="#8aa3b5"/>
<rect x="484.23" y="113.00" width="5.55" height="1.00" fill="#8aa3b5"/>
<rect x="491.77" y="112.09" width="5.55" height="1.91" fill="#8aa3b5"/>
<rect x="499.32" y="112.09" width="5.55" height="1.91" fill="#8aa3b5"/>
<rect x="506.87" y="113.00" width="5.55" height="1.00" fill="#8aa3b5"/>
<rect x="514.42" y="113.00" width="5.55" height="1.00" fill="#8aa3b5"/>
<rect x="521.96" y="113.00" width="5.55" height="1.00" fill="#8aa3b5"/>
<rect x="529.51" y="113.00" width="5.55" height="1.00" fill="#8aa3b5"/>
<rect x="537.06" y="113.00" width="5.55" height="1.00" fill="#8aa3b5"/>
<rect x="544.60" y="113.00" width="5.55" height="1.00" fill="#8aa3b5"/>
<rect x="552.15" y="113.00" width="5.55" height="1.00" fill="#8aa3b5"/>
<rect x="559.70" y="112.09" width="5.55" height="1.91" fill="#8aa3b5"/>
<rect x="567.25" y="104.44" width="5.55" height="9.56" fill="#8aa3b5"/>
<rect x="574.79" y="54.74" width="5.55" height="59.26" fill="#8aa3b5"/>
<rect x="582.34" y="112.09" width="5.55" height="1.91" fill="#8aa3b5"/>
<rect x="589.89" y="108.26" width="5.55" height="5.74" fill="#8aa3b5"/>
<rect x="597.43" y="113.00" width="5.55" height="1.00" fill="#8aa3b5"/>
<rect x="604.98" y="113.00" width="5.55" height="1.00" fill="#8aa3b5"/>
<rect x="612.53" y="113.00" width="5.55" height="1.00" fill="#8aa3b5"/>
<rect x="620.08" y="113.00" width="5.55" height="1.00" fill="#8aa3b5"/>
<rect x="627.62" y="79.59" width="5.55" height="34.41" fill="#8aa3b5"/>
<rect x="635.17" y="49.00" width="5.55" height="65.00" fill="#8aa3b5"/>
<rect x="642.72" y="83.41" width="5.55" height="30.59" fill="#8aa3b5"/>
<rect x="650.26" y="108.26" width="5.55" height="5.74" fill="#8aa3b5"/>
<rect x="657.81" y="112.09" width="5.55" height="1.91" fill="#8aa3b5"/>
<rect x="665.36" y="102.53" width="5.55" height="11.47" fill="#8aa3b5"/>
<rect x="672.91" y="94.88" width="5.55" height="19.12" fill="#8aa3b5"/>
<rect x="680.45" y="113.00" width="5.55" height="1.00" fill="#8aa3b5"/>
<text x="288" y="133" class="label" >weekly contributions</text>
<text x="24" y="174" class="label" >current streak</text>
<text x="24" y="211" class="number" >0d</text>
<text x="360" y="174" class="label" >longest streak · last year</text>
<text x="360" y="211" class="number" >6d</text>
<text x="360" y="234" class="label" >2026-08-25 – 2026-08-30</text>
<text x="24" y="274" class="label" >top languages · bytes in owned public repos</text>
<rect x="24.000" y="292" width="353.368" height="12" fill="#8aa3b5"/>
<rect x="24" y="323" width="8" height="8" fill="#8aa3b5"/>
<text x="40" y="332" class="" >Python  52.6%</text>
<rect x="377.368" y="292" width="314.778" height="12" fill="#b6bdc5"/>
<rect x="360" y="323" width="8" height="8" fill="#b6bdc5"/>
<text x="376" y="332" class="" >TypeScript  46.8%</text>
<rect x="692.146" y="292" width="2.585" height="12" fill="#929ba5"/>
<rect x="24" y="350" width="8" height="8" fill="#929ba5"/>
<text x="40" y="359" class="" >CSS  0.4%</text>
<rect x="694.731" y="292" width="0.797" height="12" fill="#737e89"/>
<rect x="360" y="350" width="8" height="8" fill="#737e89"/>
<text x="376" y="359" class="" >Dockerfile  0.1%</text>
<rect x="695.528" y="292" width="0.472" height="12" fill="#596571"/>
<rect x="24" y="377" width="8" height="8" fill="#596571"/>
<text x="40" y="386" class="" >JavaScript  0.1%</text>
</svg>